<svg width="256" height="256" viewBox="0 0 256 256" fill="none" xmlns="http://www.w3.org/2000/svg">
<path d="M127.972 0C127.972 0 107.367 36.15 104.62 39.9C101.872 44.9 99.1251 44.9 94.9491 42.4C89.4543 39.9 72.9152 31.2 72.9152 31.2C72.9152 31.2 88.0807 91 88.0807 96C89.4543 101 83.9596 104.75 78.4099 101C77.0362 99.75 48.1339 69.85 48.1339 69.85C48.1339 69.85 41.2655 83.5 39.8918 86C38.5181 88.5 37.1444 90.95 33.0234 89.75C27.4737 88.5 1.31874 83.5 1.31874 83.5C1.31874 83.5 10.9895 113.35 12.3632 117.15C13.6819 120.15 15.1105 123.4 9.61579 125.85L0 129.65C0 129.65 56.376 174.6 57.8047 175.85C60.607 178.35 63.2994 179.6 60.607 187.1C57.8047 194.6 55.0573 204.65 55.0573 204.65C55.0573 204.65 107.367 194.6 112.917 193.35C117.697 192.9 122.972 194.6 122.972 199.6C122.972 204.65 119.785 256 119.785 256H136.27C136.27 256 133.083 204.65 133.083 199.6C133.083 194.6 138.303 192.9 143.193 193.35C148.688 194.6 200.998 204.65 200.998 204.65C200.998 204.65 198.25 194.6 195.503 187.1C192.755 179.6 195.503 178.35 198.25 175.85C199.624 174.6 256.055 129.65 256.055 129.65L246.439 125.9C240.944 123.45 242.373 120.15 243.692 117.2C245.01 113.4 254.736 83.55 254.736 83.55C254.736 83.55 228.526 88.55 223.031 89.8C218.91 91 217.537 88.55 216.163 86.05C214.789 83.55 207.921 69.85 207.921 69.85C207.921 69.85 179.019 99.8 177.645 101C172.15 104.75 166.6 101 167.974 96C167.974 91 183.14 31.2 183.14 31.2C183.14 31.2 166.6 39.9 161.106 42.4C156.985 44.9 154.182 44.9 151.435 39.9C148.633 36.15 127.972 0 127.972 0Z" fill="url(#paint0_linear)"/>
<defs>
<linearGradient id="paint0_linear" x1="174.5" y1="128" x2="-133" y2="-117.5" gradientUnits="userSpaceOnUse">
<stop stop-color="#3A8A27"/>
<stop offset="1" stop-color="#FAFF00" stop-opacity="0"/>
</linearGradient>
</defs>
</svg>
